<?xml version="1.0" encoding="utf-8"?>
<svg version="1.1" id="Layer_1" xmlns="http://www.w3.org/2000/svg" xmlns:xlink="http://www.w3.org/1999/xlink" x="0px" y="0px"
	 viewBox="-910 0 1268 864" style="enable-background:new 0 0 1728 864;" xml:space="preserve">
     <style type="text/css">
	.st0{fill:#797979;}
	.st1{fill:#363636;}
</style>
<g>
	<g>
		<path class="st0" id="bigE" d="M-472.2,782.3c-67.6-0.1-177.6-0.2-245.1-0.1c-3,0-5.1-0.9-7.3-2.7c-28.7-24.3-57.5-48.7-86.2-73
			c-31.5-26.6-63-53.3-94.5-79.9c-0.6-0.5-1.3-1-2-1.6c-0.6-0.5-0.5-1.4,0.2-1.8c102-54.1,203.7-108,305.4-162
			c0.6-0.3,0.8-1.1,0.3-1.7c-101.7-114.7-203.1-229.2-304.8-343.9c-0.6-0.7-0.1-1.8,0.8-1.8h626.2c1,0,1.4,1.2,0.7,1.9
			c-2.1,2-4.1,3.9-6.1,5.7c-24.5,22.4-49,44.7-73.6,67.1c-29.8,27.1-59.6,54.3-89.4,81.4c-1.2,1.1-136.8,1.7-202.8,1.7l0,0
			c-0.5,1.6-0.4,1.5-0.9,3.1c61.1,38.2,122.2,76.3,183.6,114.7c0.5,0.3,0.7,1,0.3,1.5c-48.5,77.1-96.9,154.2-145.7,231.8
			c-0.4,0.7,0.1,1.6,0.9,1.6h275.7h0c-2.8,2.2-5.7,4.3-8.3,6.7"/>
		<path class="st1" d="M-470.2,390.7l-434.5,230.1c-1,0.5-0.6,2,0.5,2l289.7,0.3c0.4,0,0.7-0.2,0.9-0.5l144.9-230.5
			C-468.2,391.3-469.3,390.2-470.2,390.7z"/>
	</g>
	<path class="st0" id="sharp" d="M325.7,782.3h-629.2c-0.9,0-1.4-1.1-0.8-1.8l130.5-155.9c0.2-0.2,0.5-0.4,0.8-0.4l405,0.5"/>
	<path class="st0" id="rect" d="M-122,271.5h92.8c0.6,0,1.1,0.5,1.1,1.1v350.6c0,0.6-0.5,1.1-1.1,1.1H-122c-0.6,0-1.1-0.5-1.1-1.1V272.6
		C-123,272-122.6,271.5-122,271.5z"/>
	<path class="st0" id="rect" d="M53.1,271.5h92.8c0.6,0,1.1,0.5,1.1,1.1v350.6c0,0.6-0.5,1.1-1.1,1.1H53.1c-0.6,0-1.1-0.5-1.1-1.1V272.6
		C52,272,52.5,271.5,53.1,271.5z"/>
	<path class="st0" id="sharp" d="M-272,113.8h595.5c0.9,0,1.4,1,0.8,1.7L202.2,271.5c-0.2,0.3-0.5,0.4-0.8,0.4l-379-0.5"/>
</g>
          </svg>