<?xml version="1.0" encoding="utf-8"?>
<!-- Generator: Adobe Illustrator 24.3.0, SVG Export Plug-In . SVG Version: 6.00 Build 0)  -->
<svg version="1.1" id="Layer_1" xmlns="http://www.w3.org/2000/svg" xmlns:xlink="http://www.w3.org/1999/xlink" x="0px" y="0px"
	 viewBox="0 0 612 792" style="enable-background:new 0 0 612 792;" xml:space="preserve">
<style type="text/css">
	.st0{opacity:0.75;}
	.st1{fill:#7A7A7A;}
	.st2{fill:#373636;}
</style>
<g class="st0">
	<g>
		<path class="st1" d="M293.7,418.7c-4.5,0-12,0-16.5,0c-0.2,0-0.3-0.1-0.5-0.2c-1.9-1.6-3.9-3.3-5.8-4.9c-2.1-1.8-4.2-3.6-6.4-5.4
			c0,0-0.1-0.1-0.1-0.1c0,0,0-0.1,0-0.1c6.9-3.6,13.7-7.3,20.6-10.9c0,0,0.1-0.1,0-0.1c-6.8-7.7-13.7-15.4-20.5-23.1
			c0,0,0-0.1,0.1-0.1h42.1c0.1,0,0.1,0.1,0,0.1c-0.1,0.1-0.3,0.3-0.4,0.4c-1.6,1.5-3.3,3-5,4.5c-2,1.8-4,3.7-6,5.5
			c-0.1,0.1-9.2,0.1-13.6,0.1l0,0c0,0.1,0,0.1-0.1,0.2c4.1,2.6,8.2,5.1,12.4,7.7c0,0,0,0.1,0,0.1c-3.3,5.2-6.5,10.4-9.8,15.6
			c0,0,0,0.1,0.1,0.1h18.6l0,0c-0.2,0.1-0.4,0.3-0.6,0.5"/>
		<path class="st2" d="M293.8,392.3l-29.2,15.5c-0.1,0,0,0.1,0,0.1l19.5,0c0,0,0,0,0.1,0l9.8-15.5
			C294,392.4,293.9,392.3,293.8,392.3z"/>
	</g>
	<path class="st1" d="M347.4,418.7H305c-0.1,0-0.1-0.1-0.1-0.1l8.8-10.5c0,0,0,0,0.1,0l27.3,0"/>
	<path class="st1" d="M317.3,384.3h6.2c0,0,0.1,0,0.1,0.1V408c0,0,0,0.1-0.1,0.1h-6.2c0,0-0.1,0-0.1-0.1L317.3,384.3
		C317.2,384.3,317.2,384.3,317.3,384.3z"/>
	<path class="st1" d="M329,384.3h6.2c0,0,0.1,0,0.1,0.1V408c0,0,0,0.1-0.1,0.1H329c0,0-0.1,0-0.1-0.1L329,384.3
		C329,384.3,329,384.3,329,384.3z"/>
	<path class="st1" d="M307.2,373.7h40.1c0.1,0,0.1,0.1,0.1,0.1l-8.2,10.5c0,0,0,0-0.1,0l-25.5,0"/>
</g>
</svg>
