<?xml version="1.0" encoding="utf-8"?>
<!-- Generator: Adobe Illustrator 24.3.0, SVG Export Plug-In . SVG Version: 6.00 Build 0)  -->
<svg version="1.1" id="Layer_1" xmlns="http://www.w3.org/2000/svg" xmlns:xlink="http://www.w3.org/1999/xlink" x="0px" y="0px"
	 viewBox="0 0 612 792" style="enable-background:new 0 0 612 792;" xml:space="preserve">
<style type="text/css">
	.st0{opacity:0.8;fill:none;stroke:#FFF8D5;stroke-width:5;stroke-miterlimit:10;}
</style>
<path class="st0" d="M322.4,415.2H117.5c-0.3,0-0.5-0.4-0.3-0.6l42.5-55.2c0.1-0.1,0.2-0.1,0.3-0.1l131.9,0.2"/>
<path class="st0" d="M176.6,234.3h30.2c0.2,0,0.4,0.2,0.4,0.4v124.2c0,0.2-0.2,0.4-0.4,0.4h-30.2c-0.2,0-0.4-0.2-0.4-0.4V234.7
	C176.3,234.5,176.4,234.3,176.6,234.3z"/>
<path class="st0" d="M233.6,234.3h30.2c0.2,0,0.4,0.2,0.4,0.4v124.2c0,0.2-0.2,0.4-0.4,0.4h-30.2c-0.2,0-0.4-0.2-0.4-0.4V234.7
	C233.3,234.5,233.4,234.3,233.6,234.3z"/>
<path class="st0" d="M127.8,178.4h193.9c0.3,0,0.5,0.4,0.3,0.6l-39.8,55.3c-0.1,0.1-0.2,0.1-0.3,0.1l-123.4-0.2"/>
</svg>
