<?xml version="1.0" encoding="utf-8"?>
<!-- Generator: Adobe Illustrator 24.3.0, SVG Export Plug-In . SVG Version: 6.00 Build 0)  -->
<svg version="1.1" id="Layer_1" xmlns="http://www.w3.org/2000/svg" xmlns:xlink="http://www.w3.org/1999/xlink" x="0px" y="0px"
	 viewBox="0 0 612 792" style="enable-background:new 0 0 612 792;" xml:space="preserve">
<style type="text/css">
	.st0{opacity:0.85;fill:none;stroke:#B2C3D5;stroke-width:5;stroke-miterlimit:10;}
</style>
<path class="st0" d="M261.8,437.7c-29,0-76.1-0.1-105,0c-1.3,0-2.2-0.4-3.1-1.2c-12.3-10.4-24.6-20.9-36.9-31.3
	c-13.5-11.4-27-22.8-40.5-34.2c-0.3-0.2-0.6-0.4-0.9-0.7c-0.3-0.2-0.2-0.6,0.1-0.8c43.7-23.2,87.3-46.3,130.9-69.4
	c0.3-0.1,0.3-0.5,0.1-0.7c-43.6-49.2-87-98.2-130.6-147.4c-0.3-0.3,0-0.8,0.3-0.8h268.4c0.4,0,0.6,0.5,0.3,0.8
	c-0.9,0.9-1.8,1.7-2.6,2.4c-10.5,9.6-21,19.2-31.5,28.8c-12.8,11.6-25.5,23.3-38.3,34.9c-0.5,0.5-58.6,0.7-86.9,0.7l0,0
	c-0.2,0.7-0.2,0.6-0.4,1.3c26.2,16.4,52.4,32.7,78.7,49.2c0.2,0.1,0.3,0.4,0.1,0.6c-20.8,33-41.5,66.1-62.4,99.3
	c-0.2,0.3,0,0.7,0.4,0.7h118.2l0,0c-1.2,0.9-2.4,1.8-3.6,2.9"/>
</svg>
