<?xml version="1.0" encoding="utf-8"?>
<!-- Generator: Adobe Illustrator 24.3.0, SVG Export Plug-In . SVG Version: 6.00 Build 0)  -->
<svg version="1.1" id="Layer_1" xmlns="http://www.w3.org/2000/svg" xmlns:xlink="http://www.w3.org/1999/xlink" x="0px" y="0px"
	 viewBox="0 0 612 792" style="enable-background:new 0 0 612 792;" xml:space="preserve">
<style type="text/css">
	.st0{opacity:0.75;}
	.st1{fill:#F3F0F0;}
	.st2{fill:#373636;}
</style>
<g class="st0">
	<g>
		<path class="st1" d="M293.8,418.4c-4.5,0-11.8,0-16.3,0c-0.2,0-0.3-0.1-0.5-0.2c-1.9-1.6-3.8-3.2-5.7-4.9
			c-2.1-1.8-4.2-3.5-6.3-5.3c0,0-0.1-0.1-0.1-0.1c0,0,0-0.1,0-0.1c6.8-3.6,13.6-7.2,20.3-10.8c0,0,0.1-0.1,0-0.1
			c-6.8-7.6-13.5-15.3-20.3-22.9c0,0,0-0.1,0.1-0.1h41.7c0.1,0,0.1,0.1,0,0.1c-0.1,0.1-0.3,0.3-0.4,0.4c-1.6,1.5-3.3,3-4.9,4.5
			c-2,1.8-4,3.6-6,5.4c-0.1,0.1-9.1,0.1-13.5,0.1l0,0c0,0.1,0,0.1-0.1,0.2c4.1,2.5,8.1,5.1,12.2,7.6c0,0,0,0.1,0,0.1
			c-3.2,5.1-6.5,10.3-9.7,15.4c0,0,0,0.1,0.1,0.1h18.4l0,0c-0.2,0.1-0.4,0.3-0.6,0.4"/>
		<path class="st2" d="M294,392.4L265,407.7c-0.1,0,0,0.1,0,0.1l19.3,0c0,0,0,0,0.1,0L294,392.4C294.1,392.4,294,392.3,294,392.4z"
			/>
	</g>
	<path class="st1" d="M347,418.4h-41.9c-0.1,0-0.1-0.1-0.1-0.1l8.7-10.4c0,0,0,0,0.1,0l27,0"/>
	<path class="st1" d="M317.1,384.4h6.2c0,0,0.1,0,0.1,0.1v23.3c0,0,0,0.1-0.1,0.1h-6.2c0,0-0.1,0-0.1-0.1L317.1,384.4
		C317.1,384.5,317.1,384.4,317.1,384.4z"/>
	<path class="st1" d="M328.8,384.4h6.2c0,0,0.1,0,0.1,0.1v23.3c0,0,0,0.1-0.1,0.1h-6.2c0,0-0.1,0-0.1-0.1L328.8,384.4
		C328.7,384.5,328.8,384.4,328.8,384.4z"/>
	<path class="st1" d="M307.2,373.9h39.7c0.1,0,0.1,0.1,0.1,0.1l-8.1,10.4c0,0,0,0-0.1,0l-25.2,0"/>
</g>
</svg>
