<?xml version="1.0" encoding="utf-8"?>
<!-- Generator: Adobe Illustrator 24.3.0, SVG Export Plug-In . SVG Version: 6.00 Build 0)  -->
<svg version="1.1" id="Layer_1" xmlns="http://www.w3.org/2000/svg" xmlns:xlink="http://www.w3.org/1999/xlink" x="0px" y="0px"
	 viewBox="0 0 612 792" style="enable-background:new 0 0 612 792;" xml:space="preserve">
<style type="text/css">
	.st0{opacity:0.85;fill:none;stroke:#6691CB;stroke-width:2;stroke-miterlimit:10;}
</style>
<path class="st0" d="M320.9,437.7c-8.4,0-22,0-30.4,0c-0.4,0-0.6-0.1-0.9-0.3c-3.6-3-7.1-6-10.7-9.1c-3.9-3.3-7.8-6.6-11.7-9.9
	c-0.1-0.1-0.2-0.1-0.2-0.2c-0.1-0.1-0.1-0.2,0-0.2c12.7-6.7,25.3-13.4,37.9-20.1c0.1,0,0.1-0.1,0-0.2
	c-12.6-14.2-25.2-28.4-37.8-42.7c-0.1-0.1,0-0.2,0.1-0.2h77.7c0.1,0,0.2,0.1,0.1,0.2c-0.3,0.2-0.5,0.5-0.8,0.7
	c-3,2.8-6.1,5.5-9.1,8.3c-3.7,3.4-7.4,6.7-11.1,10.1c-0.1,0.1-17,0.2-25.2,0.2l0,0c-0.1,0.2,0,0.2-0.1,0.4
	c7.6,4.7,15.2,9.5,22.8,14.2c0.1,0,0.1,0.1,0,0.2c-6,9.6-12,19.1-18.1,28.8c0,0.1,0,0.2,0.1,0.2h34.2l0,0c-0.3,0.3-0.7,0.5-1,0.8"/>
</svg>
