<?xml version="1.0" encoding="utf-8"?>
<!-- Generator: Adobe Illustrator 24.3.0, SVG Export Plug-In . SVG Version: 6.00 Build 0)  -->
<svg version="1.1" id="Layer_1" xmlns="http://www.w3.org/2000/svg" xmlns:xlink="http://www.w3.org/1999/xlink" x="0px" y="0px"
	 viewBox="0 0 612 792" style="enable-background:new 0 0 612 792;" xml:space="preserve">
<style type="text/css">
	.st0{fill:none;stroke:#282828;stroke-width:5;stroke-miterlimit:10;}
</style>
<path class="st0" d="M412.4,509H200.1c-0.3,0-0.5-0.4-0.3-0.6l44-52.6c0.1-0.1,0.2-0.1,0.3-0.1l136.7,0.2"/>
<path class="st0" d="M261.3,336.6h31.3c0.2,0,0.4,0.2,0.4,0.4v118.3c0,0.2-0.2,0.4-0.4,0.4h-31.3c-0.2,0-0.4-0.2-0.4-0.4V337
	C261,336.8,261.1,336.6,261.3,336.6z"/>
<path class="st0" d="M320.4,336.6h31.3c0.2,0,0.4,0.2,0.4,0.4v118.3c0,0.2-0.2,0.4-0.4,0.4h-31.3c-0.2,0-0.4-0.2-0.4-0.4V337
	C320.1,336.8,320.2,336.6,320.4,336.6z"/>
<path class="st0" d="M210.7,283.4h201c0.3,0,0.5,0.3,0.3,0.6l-41.2,52.7c-0.1,0.1-0.2,0.1-0.3,0.1l-127.9-0.2"/>
</svg>
