<?xml version="1.0" encoding="utf-8"?>
<!-- Generator: Adobe Illustrator 24.3.0, SVG Export Plug-In . SVG Version: 6.00 Build 0)  -->
<svg version="1.1" id="Layer_1" xmlns="http://www.w3.org/2000/svg" xmlns:xlink="http://www.w3.org/1999/xlink" x="0px" y="0px"
	 viewBox="0 0 612 792" style="enable-background:new 0 0 612 792;" xml:space="preserve">
<style type="text/css">
	.st0{opacity:0.75;}
	.st1{fill:#F3F0F0;}
	.st2{fill:#373636;}
</style>
<g class="st0">
	<g>
		<path class="st1" d="M282,443.1c-17.4,0-45.7-0.1-63,0c-0.8,0-1.3-0.2-1.9-0.7c-7.4-6.3-14.8-12.5-22.2-18.8
			c-8.1-6.8-16.2-13.7-24.3-20.6c-0.2-0.1-0.3-0.3-0.5-0.4c-0.2-0.1-0.1-0.4,0.1-0.5c26.2-13.9,52.4-27.8,78.6-41.7
			c0.2-0.1,0.2-0.3,0.1-0.4c-26.2-29.5-52.2-59-78.4-88.5c-0.2-0.2,0-0.5,0.2-0.5h161.1c0.3,0,0.4,0.3,0.2,0.5
			c-0.5,0.5-1.1,1-1.6,1.5c-6.3,5.8-12.6,11.5-18.9,17.3c-7.7,7-15.3,14-23,20.9c-0.3,0.3-35.2,0.4-52.2,0.4l0,0
			c-0.1,0.4-0.1,0.4-0.2,0.8c15.7,9.8,31.4,19.6,47.2,29.5c0.1,0.1,0.2,0.3,0.1,0.4c-12.5,19.8-24.9,39.7-37.5,59.6
			c-0.1,0.2,0,0.4,0.2,0.4h70.9l0,0c-0.7,0.6-1.5,1.1-2.1,1.7"/>
		<path class="st2" d="M282.5,342.4l-111.8,59.2c-0.3,0.1-0.2,0.5,0.1,0.5l74.5,0.1c0.1,0,0.2-0.1,0.2-0.1l37.3-59.3
			C283,342.5,282.7,342.3,282.5,342.4z"/>
	</g>
	<path class="st1" d="M487.2,443.1H325.4c-0.2,0-0.4-0.3-0.2-0.5l33.6-40.1c0.1-0.1,0.1-0.1,0.2-0.1l104.2,0.1"/>
	<path class="st1" d="M372.1,311.7h23.9c0.2,0,0.3,0.1,0.3,0.3v90.2c0,0.2-0.1,0.3-0.3,0.3h-23.9c-0.2,0-0.3-0.1-0.3-0.3V312
		C371.8,311.9,371.9,311.7,372.1,311.7z"/>
	<path class="st1" d="M417.1,311.7H441c0.2,0,0.3,0.1,0.3,0.3v90.2c0,0.2-0.1,0.3-0.3,0.3h-23.9c-0.2,0-0.3-0.1-0.3-0.3V312
		C416.8,311.9,416.9,311.7,417.1,311.7z"/>
	<path class="st1" d="M333.5,271.2h153.2c0.2,0,0.4,0.3,0.2,0.4l-31.4,40.1c-0.1,0.1-0.1,0.1-0.2,0.1l-97.5-0.1"/>
</g>
</svg>
