<?xml version="1.0" encoding="utf-8"?>
<!-- Generator: Adobe Illustrator 24.3.0, SVG Export Plug-In . SVG Version: 6.00 Build 0)  -->
<svg version="1.1" id="Layer_1" xmlns="http://www.w3.org/2000/svg" xmlns:xlink="http://www.w3.org/1999/xlink" x="0px" y="0px"
	 viewBox="0 0 612 792" style="enable-background:new 0 0 612 792;" xml:space="preserve">
<style type="text/css">
	.st0{fill:none;stroke:#7A7A7A;stroke-miterlimit:10;}
</style>
<path class="st0" d="M319.5,410.6h-27.1c0,0-0.1,0,0-0.1l5.6-6.7c0,0,0,0,0,0l17.4,0"/>
<path class="st0" d="M300.2,388.6h4c0,0,0,0,0,0v15.1c0,0,0,0,0,0h-4c0,0,0,0,0,0L300.2,388.6C300.2,388.6,300.2,388.6,300.2,388.6z
	"/>
<path class="st0" d="M307.7,388.6h4c0,0,0,0,0,0v15.1c0,0,0,0,0,0h-4c0,0,0,0,0,0L307.7,388.6C307.7,388.6,307.7,388.6,307.7,388.6z
	"/>
<path class="st0" d="M293.8,381.8h25.6c0,0,0.1,0,0,0.1l-5.2,6.7c0,0,0,0,0,0l-16.3,0"/>
</svg>
