<?xml version="1.0" encoding="utf-8"?>
<!-- Generator: Adobe Illustrator 24.3.0, SVG Export Plug-In . SVG Version: 6.00 Build 0)  -->
<svg version="1.1" id="Layer_1" xmlns="http://www.w3.org/2000/svg" xmlns:xlink="http://www.w3.org/1999/xlink" x="0px" y="0px"
	 viewBox="0 0 612 792" style="enable-background:new 0 0 612 792;" xml:space="preserve">
<style type="text/css">
	.st0{opacity:0.8;fill:none;stroke:#EFE4A3;stroke-miterlimit:10;}
</style>
<path class="st0" d="M322.4,415.2h-32.9c0,0-0.1-0.1,0-0.1l6.8-8.9c0,0,0,0,0,0l21.2,0"/>
<path class="st0" d="M299,386.1h4.9c0,0,0.1,0,0.1,0.1v19.9c0,0,0,0.1-0.1,0.1H299c0,0-0.1,0-0.1-0.1L299,386.1
	C298.9,386.2,298.9,386.1,299,386.1z"/>
<path class="st0" d="M308.1,386.1h4.9c0,0,0.1,0,0.1,0.1v19.9c0,0,0,0.1-0.1,0.1h-4.9c0,0-0.1,0-0.1-0.1L308.1,386.1
	C308.1,386.2,308.1,386.1,308.1,386.1z"/>
<path class="st0" d="M291.1,377.2h31.1c0,0,0.1,0.1,0,0.1l-6.4,8.9c0,0,0,0,0,0l-19.8,0"/>
</svg>
