<?xml version="1.0" encoding="utf-8"?>
<!-- Generator: Adobe Illustrator 24.3.0, SVG Export Plug-In . SVG Version: 6.00 Build 0)  -->
<svg version="1.1" id="Layer_1" xmlns="http://www.w3.org/2000/svg" xmlns:xlink="http://www.w3.org/1999/xlink" x="0px" y="0px"
	 viewBox="0 0 612 792" style="enable-background:new 0 0 612 792;" xml:space="preserve">
<style type="text/css">
	.st0{opacity:0.75;}
	.st1{fill:#7A7A7A;}
	.st2{fill:#373636;}
</style>
<g class="st0">
	<g>
		<path class="st1" d="M265.5,425.2c-18.4,0-48.3-0.1-66.7,0c-0.8,0-1.4-0.2-2-0.7c-7.8-6.6-15.6-13.2-23.4-19.9
			c-8.6-7.2-17.1-14.5-25.7-21.7c-0.2-0.1-0.4-0.3-0.5-0.4c-0.2-0.1-0.1-0.4,0.1-0.5c27.7-14.7,55.4-29.4,83.1-44.1
			c0.2-0.1,0.2-0.3,0.1-0.5c-27.7-31.2-55.2-62.3-82.9-93.5c-0.2-0.2,0-0.5,0.2-0.5h170.3c0.3,0,0.4,0.3,0.2,0.5
			c-0.6,0.5-1.1,1.1-1.7,1.6c-6.7,6.1-13.3,12.2-20,18.2c-8.1,7.4-16.2,14.8-24.3,22.1c-0.3,0.3-37.2,0.5-55.2,0.5l0,0
			c-0.1,0.4-0.1,0.4-0.2,0.8c16.6,10.4,33.2,20.7,49.9,31.2c0.1,0.1,0.2,0.3,0.1,0.4c-13.2,21-26.4,41.9-39.6,63
			c-0.1,0.2,0,0.4,0.2,0.4h75l0,0c-0.8,0.6-1.6,1.2-2.3,1.8"/>
		<path class="st2" d="M266,318.7l-118.2,62.6c-0.3,0.1-0.2,0.5,0.1,0.5l78.8,0.1c0.1,0,0.2-0.1,0.2-0.1l39.4-62.7
			C266.6,318.8,266.3,318.5,266,318.7z"/>
	</g>
	<path class="st1" d="M482.5,425.2H311.3c-0.2,0-0.4-0.3-0.2-0.5l35.5-42.4c0.1-0.1,0.1-0.1,0.2-0.1l110.1,0.1"/>
	<path class="st1" d="M360.7,286.3h25.2c0.2,0,0.3,0.1,0.3,0.3v95.3c0,0.2-0.1,0.3-0.3,0.3h-25.2c-0.2,0-0.3-0.1-0.3-0.3v-95.3
		C360.4,286.4,360.5,286.3,360.7,286.3z"/>
	<path class="st1" d="M408.3,286.3h25.2c0.2,0,0.3,0.1,0.3,0.3v95.3c0,0.2-0.1,0.3-0.3,0.3h-25.2c-0.2,0-0.3-0.1-0.3-0.3v-95.3
		C408,286.4,408.2,286.3,408.3,286.3z"/>
	<path class="st1" d="M319.9,243.4h161.9c0.2,0,0.4,0.3,0.2,0.5l-33.2,42.4c-0.1,0.1-0.1,0.1-0.2,0.1l-103.1-0.1"/>
</g>
</svg>
